<mxfile host="app.diagrams.net" modified="2024-02-20T10:10:07.395Z" agent="Mozilla/5.0 (Windows NT 10.0; Win64; x64) AppleWebKit/537.36 (KHTML, like Gecko) Chrome/121.0.0.0 Safari/537.36" version="21.2.9" etag="46w3NjUIAspaKJqF0eZc" type="github">
  <diagram name="第 1 页" id="oS4Mo0C8fQ5ceyze22jR">
    <mxGraphModel>
      <root>
        <mxCell id="0" />
        <mxCell id="1" parent="0" />
      </root>
    </mxGraphModel>
  </diagram>
</mxfile>
